Coordinates
version=1
nRows=11
nColumns=36
inDegrees=yes

Units are S.I. units (second, meters, Newtons, ...)
If the header above contains a line with 'inDegrees', this indicates whether rotational values are in degrees (yes) or radians (no).

endheader
time	pelvis_tilt	pelvis_list	pelvis_rotation	pelvis_tx	pelvis_ty	pelvis_tz	hip_flexion_r	hip_adduction_r	hip_rotation_r	knee_angle_r	knee_angle_r_beta	ankle_angle_r	subtalar_angle_r	mtp_angle_r	hip_flexion_l	hip_adduction_l	hip_rotation_l	knee_angle_l	knee_angle_l_beta	ankle_angle_l	subtalar_angle_l	mtp_angle_l	lumbar_extension	lumbar_bending	lumbar_rotation	arm_flex_r	arm_add_r	arm_rot_r	elbow_flex_r	pro_sup_r	arm_flex_l	arm_add_l	arm_rot_l	elbow_flex_l	pro_sup_l
      2.94166670	     -8.35826370	     -1.69510105	     -3.28955978	     -0.23934561	      1.18081039	     -0.05942509	     27.29010720	     -1.57373595	     -7.73217576	     52.24179740	      0.91179137	     -5.03282299	      5.32787632	     -7.49999987	     37.60112735	     -7.22130971	     -1.70231313	     30.85569253	      0.53853343	    -20.37187231	    -14.13768514	     -7.49999987	     -9.18934094	      0.94062009	      7.24743044	     52.62530128	    -77.48998363	    -12.83469410	     88.26591292	     71.39342709	    101.83048338	    -45.62798591	     50.70242843	     73.04305007	     80.29426275
      2.94583330	     -8.50220860	     -1.59950935	     -3.04240302	     -0.23375318	      1.17648256	     -0.06134532	     27.70142035	     -1.77647467	     -7.48043835	     49.58832809	      0.86547960	     -3.11328204	      4.98060045	     -7.49999987	     37.69520370	     -6.89634580	     -1.66925389	     30.07379866	      0.52488681	    -20.23815701	    -13.79666932	     -7.49999987	     -9.16408667	      1.10375471	      6.03613715	     51.76757735	    -76.68583512	    -13.82965540	     88.68277915	     71.26047997	    101.04412666	    -47.60889100	     50.36821139	     74.76879719	     80.26323462
      2.95000000	     -8.92080878	     -1.21182706	     -2.65848600	     -0.22739987	      1.17110798	     -0.06176459	     28.42839647	     -2.32165437	     -7.24706626	     47.35368323	      0.82647769	     -2.21774168	      4.81301139	     -7.49999987	     38.04298730	     -6.18367611	     -1.87456980	     29.16051911	      0.50894707	    -19.77667943	    -13.49993439	     -7.49999987	     -9.03383432	      1.18944488	      4.82815743	     50.77233271	    -75.90777522	    -15.48521116	     89.47961464	     71.28191026	    100.19982185	    -49.86998064	     50.16439612	     76.83293704	     80.33570269
      2.95416670	     -8.86805597	     -0.91634473	     -2.61670992	     -0.22134558	      1.16109105	     -0.06325927	     28.42765153	     -2.65539018	     -7.30361730	     45.79691300	      0.79930692	     -0.30213204	      4.07770340	     -7.49999987	     37.99774805	     -5.60643204	     -1.44310683	     28.42637042	      0.49613376	    -18.79361705	    -13.20363986	     -7.49999987	     -8.73548895	      1.06383266	      4.28548994	     50.19559670	    -75.68816213	    -15.62448857	     89.41815768	     71.28805546	     99.68997229	    -50.55379110	     50.46391619	     76.89717180	     80.33569736
      2.95833330	     -9.44036606	     -0.57111963	     -2.42688089	     -0.21608554	      1.15490721	     -0.06250519	     29.26961702	     -2.90642421	     -6.97507911	     43.85273779	      0.76537466	      0.36088353	      4.43704499	     -7.49999987	     38.59412266	     -5.18781846	     -1.44153447	     27.75795655	      0.48446774	    -17.38812930	    -11.54624637	     -7.49999987	     -8.72468150	     -0.16112735	      8.10451229	      7.43201370	    -78.08574726	    -58.89259745	     93.11209104	     69.28228516	    100.60053623	    -44.88422550	     51.32556176	     75.05100685	     81.51733388
      2.96250000	     -9.57040680	     -0.43326217	     -2.30773811	     -0.21011482	      1.14888492	     -0.06319421	     29.79909375	     -3.07013957	     -6.57219748	     42.18189043	      0.73621287	      0.74750839	      4.40442839	     -7.49999987	     38.65983876	     -4.73799322	     -0.96788600	     27.09633845	      0.47292032	    -16.86017802	    -11.29759705	     -7.49999987	     -8.37671068	     -0.28897420	      7.42160707	      7.24977785	    -77.13520340	    -58.99249796	     93.18029561	     69.33625733	    100.21529032	    -45.62702856	     51.54257619	     75.17042990	     81.62787518
      2.96666670	    -10.04547944	     -0.55217288	     -2.33514124	     -0.20546016	      1.14464013	     -0.06480903	     30.82421063	     -3.04075677	     -6.25926710	     40.60455259	      0.70868313	      0.21036564	      3.71449397	     -7.49999987	     39.11764569	     -4.81707472	     -1.17253867	     26.60351317	      0.46431890	    -15.78001899	     -9.95220997	     -7.49999987	     -7.83095156	     -0.03080094	      6.87253032	      6.75737377	    -75.99047100	    -59.27257690	     93.67769254	     69.46119541	     99.36735561	    -46.87220707	     52.00922058	     77.17282487	     81.67125014
      2.97083330	     -9.99595627	     -0.72697330	     -2.10017145	     -0.19750643	      1.13498919	     -0.06707365	     31.57367232	     -3.15208416	     -5.58247597	     39.93148593	      0.69693590	     -0.10911697	      3.94938121	     -7.49999987	     38.73420293	     -4.74391388	     -0.56383132	     25.80144511	      0.45032017	    -15.26551716	     -9.74484990	     -7.49999987	     -7.71581391	      0.43905414	      6.28494952	      6.44433108	    -75.57762557	    -59.38237784	     93.64707582	     69.50867967	     98.58895065	    -47.69615357	     52.32917286	     77.47972924	     81.71068497
      2.97500000	    -10.46397128	     -0.99595775	     -1.92696654	     -0.19178743	      1.12968210	     -0.06754773	     32.56309967	     -3.10465161	     -5.12100938	     38.99142934	      0.68052882	     -0.35256083	      3.72545523	     -7.49999987	     39.14593590	     -4.82669859	     -0.36200884	     25.27755575	      0.44117657	    -14.18340802	     -8.25809865	     -7.49999987	     -8.32843321	      0.98396516	     10.01130353	    -30.24801341	    -72.84524196	    -95.04792005	     97.61448112	     68.29738145	     97.07369503	    -44.20294000	     50.66581730	     78.61830191	     83.12461954
      2.97916670	    -10.52344341	     -1.19665595	     -1.72343540	     -0.18524896	      1.12461130	     -0.06837392	     32.92675197	     -3.08442961	     -4.68449437	     37.84798159	      0.66057189	      0.07382300	      3.91663379	     -7.49999987	     39.05942171	     -4.90753262	     -0.15240612	     24.43630521	      0.42649398	    -13.54730491	     -7.25758198	     -7.49999987	     -8.18134144	      1.38030295	      9.80227015	    -31.12941474	    -71.38906797	    -95.14183117	     98.25990123	     68.58807129	     96.03365771	    -45.00573871	     50.90967570	     79.83222040	     83.41964948
      2.98333330	    -10.44004868	     -1.19157853	     -1.68357876	     -0.17864515	      1.11886789	     -0.06969111	     33.11258017	     -3.24895127	     -4.55347297	     36.82621584	      0.64273872	     -0.13688575	      3.76903715	     -7.49999987	     38.75481001	     -4.77096078	     -0.13014345	     23.53899166	      0.41083291	    -13.61231955	     -6.79868890	     -7.49999987	     -8.11005520	      1.47282488	      9.71688503	    -32.13708635	    -70.08211024	    -94.77594416	     98.56940696	     68.84557813	     94.94503889	    -45.51154468	     51.15826593	     80.54335386	     83.75185345
